<svg width="26" height="26" viewBox="0 0 26 26" fill="none" xmlns="http://www.w3.org/2000/svg">
<path d="M24.7505 1.4882C24.7409 1.44151 24.7181 1.39856 24.6849 1.3644C24.6517 1.33024 24.6095 1.30629 24.5631 1.29536C21.4748 0.538813 14.3405 3.23451 10.4712 7.10712C9.78163 7.79215 9.15284 8.53595 8.59196 9.33012C7.39932 9.22204 6.20668 9.31306 5.19123 9.75675C2.32378 11.0196 1.4895 14.3176 1.25665 15.7335C1.24403 15.8111 1.24942 15.8905 1.2724 15.9657C1.29537 16.0408 1.33532 16.1097 1.38914 16.1669C1.44295 16.2241 1.5092 16.2681 1.58274 16.2955C1.65629 16.323 1.73515 16.3331 1.81321 16.3251L6.41738 15.8188C6.42056 16.1666 6.44141 16.5141 6.47985 16.8598C6.50388 17.0987 6.61032 17.3218 6.78085 17.4906L8.56356 19.2762C8.73226 19.4471 8.9552 19.5537 9.19396 19.5776C9.53704 19.616 9.88183 19.6369 10.227 19.6402L9.72213 24.2478C9.71425 24.3259 9.7244 24.4047 9.7518 24.4783C9.7792 24.5518 9.82311 24.618 9.88015 24.6719C9.93718 24.7257 10.0058 24.7657 10.0807 24.7887C10.1556 24.8117 10.2348 24.8172 10.3122 24.8046C11.7263 24.5771 15.026 23.7415 16.2794 20.87C16.7224 19.8518 16.8132 18.6635 16.711 17.4747C17.5063 16.9134 18.251 16.2836 18.9367 15.5924C22.8202 11.7243 25.4945 4.73566 24.7505 1.4882ZM15.4849 10.5816C15.1457 10.2419 14.9146 9.8091 14.821 9.33792C14.7274 8.86674 14.7754 8.37834 14.9589 7.93448C15.1425 7.49062 15.4533 7.11124 15.8521 6.84432C16.2509 6.57741 16.7198 6.43494 17.1994 6.43494C17.6791 6.43494 18.148 6.57741 18.5468 6.84432C18.9456 7.11124 19.2564 7.49062 19.4399 7.93448C19.6235 8.37834 19.6714 8.86674 19.5778 9.33792C19.4842 9.8091 19.2532 10.2419 18.914 10.5816C18.689 10.8074 18.4218 10.9865 18.1275 11.1088C17.8333 11.231 17.5179 11.294 17.1994 11.294C16.8809 11.294 16.5655 11.231 16.2713 11.1088C15.9771 10.9865 15.7099 10.8074 15.4849 10.5816Z" stroke="#2A3F77" stroke-linecap="round" stroke-linejoin="round"/>
</svg>
