<svg width="19" height="18" viewBox="0 0 19 18" fill="none" xmlns="http://www.w3.org/2000/svg">
<path d="M18.6067 15.3836L14.4281 11.5071C15.4342 10.2646 15.9772 8.75234 15.9754 7.19842C15.9754 3.22923 12.4945 0 8.21601 0C3.93751 0 0.456619 3.22923 0.456619 7.19842C0.456619 11.1676 3.93751 14.3968 8.21601 14.3968C9.89103 14.3985 11.5212 13.8947 12.8604 12.9614L17.039 16.8379C17.2505 17.0133 17.5264 17.107 17.81 17.0996C18.0936 17.0922 18.3634 16.9844 18.564 16.7983C18.7646 16.6122 18.8808 16.3619 18.8888 16.0988C18.8967 15.8357 18.7958 15.5798 18.6067 15.3836ZM2.67359 7.19842C2.67359 6.18148 2.99864 5.18738 3.60765 4.34183C4.21666 3.49627 5.08227 2.83725 6.09501 2.44808C7.10776 2.05892 8.22216 1.95709 9.29728 2.15549C10.3724 2.35388 11.36 2.84358 12.1351 3.56267C12.9102 4.28175 13.4381 5.19792 13.6519 6.19531C13.8658 7.19271 13.756 8.22654 13.3365 9.16607C12.917 10.1056 12.2067 10.9086 11.2952 11.4736C10.3838 12.0386 9.31219 12.3401 8.21601 12.3401C6.74661 12.3385 5.33789 11.7963 4.29887 10.8324C3.25985 9.86845 2.67535 8.56158 2.67359 7.19842Z" fill="#828282" fill-opacity="0.5"/>
</svg>
