<svg width="39" height="39" viewBox="0 0 39 39" fill="none" xmlns="http://www.w3.org/2000/svg">
<path d="M19.06 38.11C8.53 38.11 0 29.58 0 19.06C0 8.53 8.53 0 19.06 0C29.58 0 38.12 8.53 38.12 19.06C38.12 29.58 29.59 38.12 19.06 38.12V38.11Z" fill="url(#paint0_linear_994_174)"/>
<path d="M22.97 18.8899C24.29 17.7799 25.13 16.1099 25.13 14.2499C25.13 10.8999 22.41 8.17993 19.06 8.17993C15.71 8.17993 12.99 10.8999 12.99 14.2499C12.99 16.1099 13.83 17.7799 15.15 18.8899C13.43 19.8499 12.27 21.6799 12.27 23.7899V29.9399H25.85V23.7899C25.85 21.6799 24.69 19.8499 22.97 18.8899Z" fill="white"/>
<defs>
<linearGradient id="paint0_linear_994_174" x1="0" y1="19.06" x2="38.11" y2="19.06" gradientUnits="userSpaceOnUse">
<stop stop-color="#192440"/>
<stop offset="0.51" stop-color="#293F77"/>
<stop offset="1" stop-color="#172139"/>
</linearGradient>
</defs>
</svg>
